<mxfile host="app.diagrams.net" modified="2023-11-08T21:18:32.871Z" agent="Mozilla/5.0 (Windows NT 10.0; Win64; x64) AppleWebKit/537.36 (KHTML, like Gecko) Chrome/119.0.0.0 Safari/537.36" etag="9iUcYtKeUb3ntiFOxa3q" version="22.0.8" type="google">
  <diagram name="PÃ¡gina-1" id="eG8z-k07EipVZBT7RtGc">
    <mxGraphModel grid="1" page="1" gridSize="10" guides="1" tooltips="1" connect="1" arrows="1" fold="1" pageScale="1" pageWidth="850" pageHeight="1100" math="0" shadow="0">
      <root>
        <mxCell id="0" />
        <mxCell id="1" parent="0" />
        <mxCell id="VZylmSjHp9cFKJgwPGX3-1" style="edgeStyle=none;curved=1;rounded=0;orthogonalLoop=1;jettySize=auto;html=1;fontSize=12;startSize=8;endSize=8;entryX=0;entryY=0.5;entryDx=0;entryDy=0;" edge="1" parent="1" source="bLtbLPNk10_4NOEakIgp-1" target="bLtbLPNk10_4NOEakIgp-4">
          <mxGeometry relative="1" as="geometry">
            <mxPoint x="350" y="210" as="targetPoint" />
          </mxGeometry>
        </mxCell>
        <mxCell id="eqR784Hj9YVjLeibOfxl-5" style="edgeStyle=none;curved=1;rounded=0;orthogonalLoop=1;jettySize=auto;html=1;fontSize=12;startSize=8;endSize=8;entryX=0;entryY=0.5;entryDx=0;entryDy=0;" edge="1" parent="1" source="bLtbLPNk10_4NOEakIgp-1" target="eqR784Hj9YVjLeibOfxl-1">
          <mxGeometry relative="1" as="geometry">
            <mxPoint x="340" y="360" as="targetPoint" />
          </mxGeometry>
        </mxCell>
        <mxCell id="bLtbLPNk10_4NOEakIgp-1" value="Usuario" style="shape=umlActor;verticalLabelPosition=bottom;verticalAlign=top;html=1;outlineConnect=0;" vertex="1" parent="1">
          <mxGeometry x="160" y="420" width="60" height="130" as="geometry" />
        </mxCell>
        <mxCell id="bLtbLPNk10_4NOEakIgp-4" value="Gestionar Actividades" style="ellipse;whiteSpace=wrap;html=1;" vertex="1" parent="1">
          <mxGeometry x="360" y="220" width="120" height="80" as="geometry" />
        </mxCell>
        <mxCell id="9_arO_Iu3d3goKLhEQ98-7" style="edgeStyle=orthogonalEdgeStyle;rounded=0;orthogonalLoop=1;jettySize=auto;html=1;entryX=0;entryY=0.5;entryDx=0;entryDy=0;dashed=1;" edge="1" parent="1" source="eqR784Hj9YVjLeibOfxl-1" target="9_arO_Iu3d3goKLhEQ98-1">
          <mxGeometry relative="1" as="geometry">
            <Array as="points">
              <mxPoint x="450" y="500" />
            </Array>
          </mxGeometry>
        </mxCell>
        <mxCell id="9_arO_Iu3d3goKLhEQ98-8" style="edgeStyle=orthogonalEdgeStyle;rounded=0;orthogonalLoop=1;jettySize=auto;html=1;exitX=1;exitY=0.5;exitDx=0;exitDy=0;dashed=1;" edge="1" parent="1" source="eqR784Hj9YVjLeibOfxl-1" target="9_arO_Iu3d3goKLhEQ98-2">
          <mxGeometry relative="1" as="geometry" />
        </mxCell>
        <mxCell id="9_arO_Iu3d3goKLhEQ98-9" style="edgeStyle=orthogonalEdgeStyle;rounded=0;orthogonalLoop=1;jettySize=auto;html=1;exitX=1;exitY=0.5;exitDx=0;exitDy=0;entryX=0;entryY=0.5;entryDx=0;entryDy=0;dashed=1;" edge="1" parent="1" source="eqR784Hj9YVjLeibOfxl-1" target="9_arO_Iu3d3goKLhEQ98-3">
          <mxGeometry relative="1" as="geometry">
            <Array as="points">
              <mxPoint x="450" y="600" />
              <mxPoint x="450" y="700" />
            </Array>
          </mxGeometry>
        </mxCell>
        <mxCell id="eqR784Hj9YVjLeibOfxl-1" value="&lt;font style=&quot;font-size: 12px;&quot;&gt;Visualizar&lt;/font&gt;" style="ellipse;whiteSpace=wrap;html=1;fontSize=16;" vertex="1" parent="1">
          <mxGeometry x="360" y="560" width="120" height="80" as="geometry" />
        </mxCell>
        <mxCell id="eqR784Hj9YVjLeibOfxl-2" value="&lt;font style=&quot;font-size: 12px;&quot;&gt;Agregar tarea importante&lt;/font&gt;" style="ellipse;whiteSpace=wrap;html=1;fontSize=16;" vertex="1" parent="1">
          <mxGeometry x="560" y="150" width="120" height="80" as="geometry" />
        </mxCell>
        <mxCell id="9_arO_Iu3d3goKLhEQ98-1" value="Calendario Anual" style="ellipse;whiteSpace=wrap;html=1;" vertex="1" parent="1">
          <mxGeometry x="570" y="460" width="120" height="80" as="geometry" />
        </mxCell>
        <mxCell id="9_arO_Iu3d3goKLhEQ98-2" value="Calendario Mensual" style="ellipse;whiteSpace=wrap;html=1;" vertex="1" parent="1">
          <mxGeometry x="570" y="560" width="120" height="80" as="geometry" />
        </mxCell>
        <mxCell id="9_arO_Iu3d3goKLhEQ98-3" value="Calendario Semanal" style="ellipse;whiteSpace=wrap;html=1;" vertex="1" parent="1">
          <mxGeometry x="570" y="660" width="120" height="80" as="geometry" />
        </mxCell>
        <mxCell id="9_arO_Iu3d3goKLhEQ98-10" value="&amp;lt;include&amp;gt;" style="text;html=1;strokeColor=none;fillColor=none;align=center;verticalAlign=middle;whiteSpace=wrap;rounded=0;" vertex="1" parent="1">
          <mxGeometry x="480" y="500" width="60" height="30" as="geometry" />
        </mxCell>
        <mxCell id="9_arO_Iu3d3goKLhEQ98-11" value="&amp;lt;include&amp;gt;" style="text;html=1;strokeColor=none;fillColor=none;align=center;verticalAlign=middle;whiteSpace=wrap;rounded=0;" vertex="1" parent="1">
          <mxGeometry x="490" y="600" width="60" height="30" as="geometry" />
        </mxCell>
        <mxCell id="9_arO_Iu3d3goKLhEQ98-15" value="&amp;lt;include&amp;gt;" style="text;html=1;strokeColor=none;fillColor=none;align=center;verticalAlign=middle;whiteSpace=wrap;rounded=0;" vertex="1" parent="1">
          <mxGeometry x="480" y="700" width="60" height="30" as="geometry" />
        </mxCell>
        <mxCell id="9_arO_Iu3d3goKLhEQ98-20" style="edgeStyle=orthogonalEdgeStyle;rounded=0;orthogonalLoop=1;jettySize=auto;html=1;exitX=0;exitY=0.5;exitDx=0;exitDy=0;dashed=1;" edge="1" parent="1" source="9_arO_Iu3d3goKLhEQ98-17" target="bLtbLPNk10_4NOEakIgp-4">
          <mxGeometry relative="1" as="geometry">
            <Array as="points">
              <mxPoint x="450" y="340" />
            </Array>
          </mxGeometry>
        </mxCell>
        <mxCell id="9_arO_Iu3d3goKLhEQ98-17" value="&lt;font style=&quot;font-size: 12px;&quot;&gt;Agregar tarea no importante&lt;/font&gt;" style="ellipse;whiteSpace=wrap;html=1;fontSize=16;" vertex="1" parent="1">
          <mxGeometry x="560" y="290" width="120" height="80" as="geometry" />
        </mxCell>
        <mxCell id="9_arO_Iu3d3goKLhEQ98-18" style="edgeStyle=orthogonalEdgeStyle;rounded=0;orthogonalLoop=1;jettySize=auto;html=1;exitX=0;exitY=0.5;exitDx=0;exitDy=0;entryX=0.775;entryY=0.013;entryDx=0;entryDy=0;entryPerimeter=0;dashed=1;" edge="1" parent="1" source="eqR784Hj9YVjLeibOfxl-2" target="bLtbLPNk10_4NOEakIgp-4">
          <mxGeometry relative="1" as="geometry" />
        </mxCell>
        <mxCell id="OOLiIP-1480GNWuLx5VL-1" value="&amp;lt;extends&amp;gt;" style="text;html=1;strokeColor=none;fillColor=none;align=center;verticalAlign=middle;whiteSpace=wrap;rounded=0;" vertex="1" parent="1">
          <mxGeometry x="490" y="200" width="60" height="30" as="geometry" />
        </mxCell>
        <mxCell id="OOLiIP-1480GNWuLx5VL-2" value="&amp;lt;extends&amp;gt;" style="text;html=1;strokeColor=none;fillColor=none;align=center;verticalAlign=middle;whiteSpace=wrap;rounded=0;" vertex="1" parent="1">
          <mxGeometry x="480" y="350" width="60" height="30" as="geometry" />
        </mxCell>
      </root>
    </mxGraphModel>
  </diagram>
</mxfile>
